<?xml version="1.0" standalone="no"?>
<!DOCTYPE svg PUBLIC "-//W3C//DTD SVG 20010904//EN"
 "http://www.w3.org/TR/2001/REC-SVG-20010904/DTD/svg10.dtd">
<svg version="1.0" xmlns="http://www.w3.org/2000/svg"
 width="512.000000pt" height="512.000000pt" viewBox="0 0 512.000000 512.000000"
 preserveAspectRatio="xMidYMid meet">

<g transform="translate(0.000000,512.000000) scale(0.100000,-0.100000)"
fill="#000000" stroke="none">
<path d="M1545 5095 l-25 -24 0 -1238 0 -1238 -486 -485 c-267 -267 -512 -518
-545 -558 -93 -115 -142 -214 -186 -372 -27 -100 -24 -386 5 -493 91 -330 328
-568 659 -659 105 -29 390 -32 497 -5 97 24 204 69 279 117 l65 40 72 -45
c145 -89 274 -125 470 -132 168 -6 291 14 420 67 172 71 179 77 885 779 l660
656 100 53 c130 68 201 125 273 221 177 235 198 551 56 839 -38 79 -62 111
-150 202 l-104 107 0 1072 0 1072 -25 24 -24 25 -1436 0 -1436 0 -24 -25z
m1625 -310 l0 -165 -742 2 -743 3 -3 163 -2 162 745 0 745 0 0 -165z m1158 3
l-3 -163 -492 -3 -493 -2 0 165 0 165 495 0 495 0 -2 -162z m-1158 -413 l0
-85 -742 2 -743 3 -3 69 c-2 38 -1 75 2 83 4 11 134 13 746 13 l740 0 0 -85z
m1158 3 l-3 -83 -492 -3 -493 -2 0 85 0 85 495 0 496 0 -3 -82z m-1158 -771
l0 -522 -151 -150 c-83 -83 -173 -181 -199 -218 -97 -137 -140 -286 -140 -489
0 -140 15 -222 60 -334 39 -97 94 -180 173 -262 l62 -62 -525 -525 c-289 -289
-528 -525 -531 -525 -4 0 -10 23 -13 52 -10 75 -63 231 -108 323 -191 380
-580 680 -945 730 -29 4 -53 10 -53 13 0 4 198 205 440 447 l440 440 0 796 c0
438 3 799 7 802 3 4 339 7 745 7 l738 0 0 -523z m1160 7 l0 -517 -162 -166
c-174 -177 -221 -239 -268 -350 -52 -121 -64 -190 -63 -356 0 -134 3 -160 27
-240 38 -126 94 -227 182 -329 l76 -89 -523 -523 -523 -523 -27 107 c-45 182
-98 299 -205 447 -30 42 -54 79 -54 83 0 4 78 84 173 179 158 157 179 175 262
216 50 25 114 63 143 85 117 88 213 229 258 378 23 78 27 108 28 239 1 128 -2
161 -22 229 -43 148 -100 241 -221 361 l-71 69 0 608 0 608 495 0 495 0 0
-516z m-922 -1010 c75 -111 108 -240 99 -393 -12 -217 -112 -378 -307 -493
l-84 -50 -76 78 c-80 84 -135 176 -166 279 -14 46 -19 94 -19 205 0 133 2 152
29 233 37 115 88 191 198 303 l90 91 105 -108 c59 -60 117 -125 131 -145z
m1139 4 c63 -85 92 -173 103 -311 10 -138 -6 -234 -56 -335 -47 -96 -142 -193
-249 -256 l-80 -46 -80 83 c-131 136 -185 276 -185 482 0 220 54 349 216 516
l105 107 101 -104 c55 -56 111 -118 125 -136z m-3769 -1133 c133 -13 303 -76
434 -161 87 -58 281 -243 348 -334 120 -163 183 -335 205 -556 l6 -60 -58 -43
c-80 -60 -201 -117 -289 -137 -117 -25 -363 -16 -467 18 -208 69 -375 226
-456 429 -43 108 -54 188 -48 358 6 197 38 293 146 441 42 57 45 60 80 55 20
-2 65 -7 99 -10z m1967 -540 c100 -150 160 -319 172 -486 l6 -85 -43 -37 c-61
-52 -187 -114 -276 -137 -94 -24 -335 -27 -426 -6 -93 22 -199 68 -238 103 -7
6 733 742 741 737 5 -3 33 -42 64 -89z"/>
</g>
</svg>
